<?xml version="1.0" encoding="UTF-8" standalone="no"?>
<!-- Generator: Adobe Illustrator 19.0.0, SVG Export Plug-In . SVG Version: 6.00 Build 0)  -->
<svg id="Layer_1" style="enable-background:new -257 192 284 284" xmlns="http://www.w3.org/2000/svg" xml:space="preserve" viewBox="-257 192 284 284" version="1.1" y="0px" x="0px" xmlns:xlink="http://www.w3.org/1999/xlink">
<style type="text/css">
	.st0{fill:#F3F2F1;}
	.st1{clip-path:url(#SVGID_2_);}
	.st2{fill:#F3C5AD;}
	.st3{fill:#1A1718;fill-opacity:0.3;}
	.st4{fill:#2196F3;}
	.st5{fill:#FFFFFF;}
	.st6{fill:#D5A691;}
	.st7{fill:#1A1718;fill-opacity:0.38;}
	.st8{fill:#2C2723;}
	.st9{fill:#F6AC2C;fill-opacity:0.5;}
	.st10{fill:#F3C5AD;fill-opacity:5.000000e-002;}
	.st11{fill:#1A1718;fill-opacity:5.000000e-002;}
	.st12{fill:none;stroke:#A48677;stroke-width:3;}
</style>
<circle id="oval2" cy="334" cx="-115" r="141" class="st0"/>
				<defs>
					<circle id="SVGID_1_" cy="334" cx="-115" r="141"/>
				</defs>
				<clipPath id="SVGID_2_">
					<use xlink:href="#SVGID_1_"/>
				</clipPath>
				<g id="group" class="st1">
					<g id="page1">
						<g id="layer_1">
							<g id="layer_1_1_">
								<path id="bezier2" d="m-149.8 427.3c11.1 4.1 13.2 25.6 4.8 48s-24.1 37.2-35.2 33c-11.1-4.1-13.2-25.6-4.8-48 8.4-22.3 24.1-37.1 35.2-33z" class="st2"/>
								<path id="bezier" d="m-170.6 506.6v17.1h113.3v-17.1h-113.3z"/>
								<path id="bezier3" d="m-186.5 480.4c-1.7-1.1-1.7-5.5-0.2-10.2-0.2 0.4-0.3 0.8-0.5 1.2-1.9 5.1-2 10.2-0.2 11.4s4.9-1.9 6.8-7c0.1-0.4 0.3-0.8 0.4-1.2-1.9 4.4-4.6 6.9-6.3 5.8z" class="st3"/>
								<path id="bezier4" d="m-84.2 415.3c-11.1 4.1-13.2 25.6-4.8 48s24.2 37.2 35.2 33c11.1-4.1 13.2-25.6 4.8-48-8.4-22.3-24.1-37.1-35.2-33z" class="st2"/>
								<path id="bezier5" d="m-60.4 489.3c-3.3 0-5.9-5-6.4-11.5 0 0.6-0.1 1.1-0.1 1.7 0 7.3 2.9 13.3 6.4 13.3s6.4-5.9 6.4-13.3c0-0.6 0-1.1-0.1-1.7-0.3 6.4-3 11.5-6.2 11.5z" class="st3"/>
								<path id="bezier6" d="m-46.6 441.4l-19.6-27.8-15.8 7.2-1.4-4.6h-62.9l-1.1 4-14.4-6.6-19.6 27.8 25 11.5-15.4 55.8h116.8l-17-55.6 25.4-11.7z" class="st4"/>
								<path id="bezier7" d="m-113.9 445.7c10 0 18.2-8.1 18.2-18.2 0-10-8.1-18.2-18.2-18.2-10 0-18.2 8.1-18.2 18.2 0 10 8.2 18.2 18.2 18.2z" class="st5"/>
								<path id="bezier8" d="m-113.9 442.4c8.3 0 14.9-6.2 14.9-13.9s-6.7-13.9-14.9-13.9-14.9 6.2-14.9 13.9 6.6 13.9 14.9 13.9z" class="st6"/>
								<path id="bezier9" d="m-209.6 361.3c8 0 14.4-6.5 14.4-14.4 0-8-6.5-14.4-14.4-14.4s-14.4 6.5-14.4 14.4 6.5 14.4 14.4 14.4z" class="st2"/>
								<path id="bezier10" d="m-21.4 361.3c8 0 14.4-6.5 14.4-14.4 0-8-6.5-14.4-14.4-14.4-8 0-14.4 6.5-14.4 14.4-0.1 7.9 6.4 14.4 14.4 14.4z" class="st2"/>
								<path id="bezier11" d="m-114.4 428.6c52.8 0 95.7-33.5 95.7-74.8s-42.9-74.8-95.7-74.8-95.7 33.5-95.7 74.8 42.8 74.8 95.7 74.8z" class="st2"/>
								<path id="bezier12" d="m-158.8 356.8c0 9.3-7.4-12-16.6-12s-16.6 21.3-16.6 12 7.4-16.9 16.6-16.9 16.6 7.6 16.6 16.9z" class="st7"/>
								<path id="bezier13" d="m-31.6 356.8c0 9.3-7.4-12-16.6-12-9.1 0-16.6 21.3-16.6 12s7.4-16.9 16.6-16.9 16.6 7.6 16.6 16.9z" class="st7"/>
								<path id="bezier14" d="m-49.8 327.8c11.8 0 21.5 8.1 22.4 18.5 0-0.5 0.1-1 0.1-1.4 0-11-10.1-19.9-22.4-19.9-12.4 0-22.5 8.9-22.5 19.9 0 0.5 0 1 0.1 1.4 0.8-10.3 10.5-18.5 22.3-18.5z" class="st3"/>
								<path id="bezier15" d="m-175.9 327.8c11.9 0 21.6 8.1 22.4 18.5 0-0.5 0.1-1 0.1-1.4 0-11-10.1-19.9-22.4-19.9-12.4 0-22.4 8.9-22.4 19.9 0 0.5 0 1 0.1 1.4 0.7-10.3 10.3-18.5 22.2-18.5z" class="st3"/>
								<path id="bezier16_1_" d="m-210.1 293.3h191.2v4.9c0.1-1 0.1-2.1 0.1-3.1"/>
								<path id="bezier17" d="m-18.8 291.8h-191.3v59.8c46.2-86 139.4-107.2 191.3 0v-54.9-4.9z"/>
								<path id="bezier18" d="m-115 510.8v13.9h1.1v-13.9h-1.1z" class="st8"/>
								<path id="bezier19" d="m-113.9 364.5c2.6 0 4.8 1.8 5.2 4.3 0.1-0.4 0.1-0.7 0.1-1.1 0-3-2.4-5.3-5.3-5.3-3 0-5.3 2.4-5.3 5.3 0 0.4 0 0.7 0.1 1.1 0.5-2.5 2.6-4.3 5.2-4.3z" class="st3"/>
								<path id="bezier20" d="m-52.4 389c2.1 0 3.7-1.7 3.7-3.7 0-2.1-1.7-3.7-3.7-3.7-2.1 0-3.7 1.7-3.7 3.7-0.1 2.1 1.6 3.7 3.7 3.7z" class="st9"/>
								<path id="bezier21" d="m-46 393.3c0.9 0 1.6-0.7 1.6-1.6s-0.7-1.6-1.6-1.6c-0.9 0-1.6 0.7-1.6 1.6s0.7 1.6 1.6 1.6z" class="st9"/>
								<path id="bezier22" d="m-60.4 393.3c1.2 0 2.1-1 2.1-2.1s-1-2.1-2.1-2.1c-1.2 0-2.1 1-2.1 2.1s0.9 2.1 2.1 2.1z" class="st9"/>
								<path id="bezier23" d="m-55.6 392.3c0.3 0 0.5-0.2 0.5-0.5s-0.2-0.5-0.5-0.5-0.5 0.2-0.5 0.5c-0.1 0.2 0.2 0.5 0.5 0.5z" class="st9"/>
								<path id="bezier24" d="m-170 389c2.1 0 3.7-1.7 3.7-3.7 0-2.1-1.7-3.7-3.7-3.7-2.1 0-3.7 1.7-3.7 3.7-0.1 2.1 1.6 3.7 3.7 3.7z" class="st9"/>
								<path id="bezier25" d="m-163.6 393.3c0.9 0 1.6-0.7 1.6-1.6s-0.7-1.6-1.6-1.6c-0.9 0-1.6 0.7-1.6 1.6s0.7 1.6 1.6 1.6z" class="st9"/>
								<path id="bezier26" d="m-179.1 393.3c1.2 0 2.1-1 2.1-2.1s-0.9-2.1-2.1-2.1c-1.2 0-2.1 1-2.1 2.1s0.9 2.1 2.1 2.1z" class="st9"/>
								<path id="bezier27" d="m-174.3 392.3c0.3 0 0.5-0.2 0.5-0.5s-0.2-0.5-0.5-0.5-0.5 0.2-0.5 0.5c0 0.2 0.2 0.5 0.5 0.5z" class="st9"/>
								<path id="bezier28" d="m-180.4 375.2c-8.4 0-15.9 3.6-21.2 9.2 9.1 16 25.1 29 45 36.7 3.3-4.7 5.2-10.5 5.2-16.7 0.1-16.2-12.9-29.2-29-29.2z" class="st10"/>
								<path id="bezier29" d="m-48.5 375.2c8.4 0 15.9 3.6 21.2 9.2-9.1 16-25.1 29-45 36.7-3.3-4.7-5.2-10.5-5.2-16.7-0.1-16.2 12.9-29.2 29-29.2z" class="st10"/>
								<path id="bezier30" d="m-181.8 529c2.7 0 4.8-1.7 4.8-3.7 0-2.1-2.1-3.7-4.8-3.7-2.6 0-4.8 1.7-4.8 3.7s2.2 3.7 4.8 3.7z" class="st8"/>
								<path id="bezier31" d="m-174.3 529c2.7 0 4.8-1.7 4.8-3.7 0-2.1-2.2-3.7-4.8-3.7-2.7 0-4.8 1.7-4.8 3.7s2.2 3.7 4.8 3.7z" class="st8"/>
								<path id="bezier32" d="m-166.8 529c2.7 0 4.8-1.7 4.8-3.7 0-2.1-2.1-3.7-4.8-3.7s-4.8 1.7-4.8 3.7 2.1 3.7 4.8 3.7z" class="st8"/>
								<path id="bezier33" d="m-158.3 529c2.7 0 4.8-1.7 4.8-3.7 0-2.1-2.2-3.7-4.8-3.7-2.7 0-4.8 1.7-4.8 3.7s2.2 3.7 4.8 3.7z" class="st8"/>
								<path id="bezier34" d="m-150.8 529c2.7 0 4.8-1.7 4.8-3.7 0-2.1-2.1-3.7-4.8-3.7-2.6 0-4.8 1.7-4.8 3.7s2.2 3.7 4.8 3.7z" class="st8"/>
								<path id="bezier35" d="m-143.3 529c2.7 0 4.8-1.7 4.8-3.7 0-2.1-2.2-3.7-4.8-3.7-2.7 0-4.8 1.7-4.8 3.7s2.2 3.7 4.8 3.7z" class="st8"/>
								<path id="bezier36" d="m-134.7 529c2.7 0 4.8-1.7 4.8-3.7 0-2.1-2.2-3.7-4.8-3.7-2.7 0-4.8 1.7-4.8 3.7-0.1 2 2.1 3.7 4.8 3.7z" class="st8"/>
								<path id="bezier37" d="m-127.3 529c2.7 0 4.8-1.7 4.8-3.7 0-2.1-2.2-3.7-4.8-3.7-2.7 0-4.8 1.7-4.8 3.7s2.2 3.7 4.8 3.7z" class="st8"/>
								<path id="bezier38" d="m-119.8 529c2.7 0 4.8-1.7 4.8-3.7 0-2.1-2.1-3.7-4.8-3.7-2.6 0-4.8 1.7-4.8 3.7s2.2 3.7 4.8 3.7z" class="st8"/>
								<path id="bezier39" d="m-109.1 529c2.7 0 4.8-1.7 4.8-3.7 0-2.1-2.1-3.7-4.8-3.7s-4.8 1.7-4.8 3.7 2.2 3.7 4.8 3.7z" class="st8"/>
								<path id="bezier40" d="m-101.6 529c2.7 0 4.8-1.7 4.8-3.7 0-2.1-2.2-3.7-4.8-3.7-2.7 0-4.8 1.7-4.8 3.7s2.1 3.7 4.8 3.7z" class="st8"/>
								<path id="bezier41" d="m-94.1 529c2.7 0 4.8-1.7 4.8-3.7 0-2.1-2.2-3.7-4.8-3.7-2.7 0-4.8 1.7-4.8 3.7s2.1 3.7 4.8 3.7z" class="st8"/>
								<path id="bezier42" d="m-85.6 529c2.7 0 4.8-1.7 4.8-3.7 0-2.1-2.2-3.7-4.8-3.7-2.7 0-4.8 1.7-4.8 3.7s2.2 3.7 4.8 3.7z" class="st8"/>
								<path id="bezier43" d="m-78.1 529c2.7 0 4.8-1.7 4.8-3.7 0-2.1-2.1-3.7-4.8-3.7s-4.8 1.7-4.8 3.7 2.2 3.7 4.8 3.7z" class="st8"/>
								<path id="bezier44" d="m-70.6 529c2.7 0 4.8-1.7 4.8-3.7 0-2.1-2.2-3.7-4.8-3.7-2.7 0-4.8 1.7-4.8 3.7s2.1 3.7 4.8 3.7z" class="st8"/>
								<path id="bezier45" d="m-62.1 529c2.7 0 4.8-1.7 4.8-3.7 0-2.1-2.2-3.7-4.8-3.7-2.7 0-4.8 1.7-4.8 3.7s2.2 3.7 4.8 3.7z" class="st8"/>
								<path id="bezier46" d="m-54.6 529c2.7 0 4.8-1.7 4.8-3.7 0-2.1-2.2-3.7-4.8-3.7-2.7 0-4.8 1.7-4.8 3.7s2.2 3.7 4.8 3.7z" class="st8"/>
								<path id="bezier47" d="m-47.1 529c2.7 0 4.8-1.7 4.8-3.7 0-2.1-2.1-3.7-4.8-3.7s-4.8 1.7-4.8 3.7c0 2 2.2 3.7 4.8 3.7z" class="st8"/>
								<path id="bezier48" d="m-113.9 373c24.2 0 43.8-2.2 43.8-4.8 0-2.7-19.6-4.8-43.8-4.8s-43.8 2.1-43.8 4.8c0 2.7 19.6 4.8 43.8 4.8z" class="st11"/>
								<path id="bezier49" d="m-150.2 510.8c-20.1 0-36.4 6.7-36.4 15h72.7c0-8.3-16.3-15-36.3-15z" class="st5"/>
								<path id="bezier50" d="m-77.6 510.8c-20.1 0-36.3 6.7-36.3 15h72.7c0-8.3-16.3-15-36.4-15z" class="st5"/>
							</g>
							<path id="bezier52" d="m-82.9 392.8c0 6.8-13.4 12.3-29.9 12.3s-29.9-5.5-29.9-12.3 13.4-12.3 29.9-12.3 29.9 5.5 29.9 12.3z" class="st12"/>
							<path id="bezier53" d="m-146 377.3v15h65.2v-15h-65.2z" class="st2"/>
						</g>
					</g>
				</g>
<path d="m-210.1 293.3s4.8-48.6 95.1-48.6 96.1 48.6 96.1 48.6"/>
<path d="m-184.7 274.6c-58.3 36.4 26.3-53.8 33.3-48.2l-6.6 29.6s31.6-17.9-26.7 18.6z"/>
<path d="m-174 265l62.5-20.3c-29.9 1.2-47-3.5-40.6-18.7"/>
</svg>
